# xmcd CD database file
#
# Track frame offsets:
#	150
#	14909
#	26763
#	42269
#	54848
#	67965
#	81928
#	95659
#	109716
#	127866
#	141213
#	163322
#	177865
#	192280
#	205265
#	225529
#	247714
#	261250
#	274724
#
# Disc length: 4050 seconds
#
# Revision: 0
# Processed by: cddbd v1.5.2PL0 Copyright (c) Steve Scherf et al.
# Submitted via: CDex 1.70beta2
#
DISCID=070fd013
DTITLE=Lester Young - Giants of Jazz Disc 2
DYEAR=1900
DGENRE=Jazz
TTITLE0=I Left My Baby: Count Basie and His Orchestra
TTITLE1=Tickle Toe: Count Basie and His Orchestra
TTITLE2=Easy Does It: Count Basie and His Orchestra
TTITLE3=Let Me See: Count Basie and His Orchestra 
TTITLE4=Blow Top: Count Basie and His Orchestra
TTITLE5=Five O'Clock Whistle: Count Basie and His Orchestra 
TTITLE6=Broadway: Count Basie and His Orchestra
TTITLE7=Beautiful Eyes: Una Mae Carlisle and Her Jam Band
TTITLE8=All of Me: Billie Holiday accompanied by Eddie Heywood and His Orchestra 
TTITLE9=Just Jivin' Around: Sam Price and His Texas Musicians 
TTITLE10=I Can't Get Started: Lester Young Trio
TTITLE11=Afternoon of a Basie-ite: Lester Young Quartet
TTITLE12=Sometimes I'm Happy: Lester Young Quartet
TTITLE13=Three Little Words: Kansas City Six
TTITLE14=Lester Leaps Again: Kansas City Seven
TTITLE15=Destination K. C.: Kansas City Seven
TTITLE16=Exercise in Swing: Johnny Guarnieri Swing Men
TTITLE17=D. B. Blues: Lester Young and His Band
TTITLE18=Fine and Mellow: Billie Holiday with Mal Waldron's All Stars
EXTD=
EXTT0=
EXTT1=
EXTT2=
EXTT3=
EXTT4=
EXTT5=
EXTT6=
EXTT7=
EXTT8=
EXTT9=
EXTT10=
EXTT11=
EXTT12=
EXTT13=
EXTT14=
EXTT15=
EXTT16=
EXTT17=
EXTT18=
PLAYORDER=
